<svg width="500" height="500" viewBox="0 0 500 500" fill="none" xmlns="http://www.w3.org/2000/svg">
<rect x="333.944" y="47" width="296.79" height="166.944" rx="11" transform="rotate(90 333.944 47)" fill="#03055E"/>
<rect x="188" y="199.254" width="56.5222" height="57.3414" rx="11" fill="#0077B7"/>
<rect x="193.325" y="203.759" width="1.63832" height="48.3306" fill="#01B5D8"/>
<rect x="215.442" y="203.759" width="1.63832" height="48.3306" fill="#01B5D8"/>
<rect x="237.559" y="203.759" width="1.63832" height="48.3306" fill="#01B5D8"/>
<rect x="197.011" y="203.759" width="1.63832" height="48.3306" fill="#01B5D8"/>
<rect x="219.128" y="203.759" width="1.63832" height="48.3306" fill="#01B5D8"/>
<rect x="200.697" y="203.759" width="1.63832" height="48.3306" fill="#01B5D8"/>
<rect x="222.814" y="203.759" width="1.63832" height="48.3306" fill="#01B5D8"/>
<rect x="204.383" y="203.759" width="1.63832" height="48.3306" fill="#01B5D8"/>
<rect x="226.501" y="203.759" width="1.63832" height="48.3306" fill="#01B5D8"/>
<rect x="208.07" y="203.759" width="1.63832" height="48.3306" fill="#01B5D8"/>
<rect x="230.187" y="203.759" width="1.63832" height="48.3306" fill="#01B5D8"/>
<rect x="211.756" y="203.759" width="1.63832" height="48.3306" fill="#01B5D8"/>
<rect x="233.873" y="203.759" width="1.63832" height="48.3306" fill="#01B5D8"/>
<rect x="188" y="262.329" width="56.5222" height="57.3414" rx="11" fill="#0077B7"/>
<rect x="200.697" y="266.835" width="1.63832" height="48.3306" fill="#01B5D8"/>
<rect x="222.814" y="266.835" width="1.63832" height="48.3306" fill="#01B5D8"/>
<rect x="204.383" y="266.835" width="1.63832" height="48.3306" fill="#01B5D8"/>
<rect x="226.501" y="266.835" width="1.63832" height="48.3306" fill="#01B5D8"/>
<rect x="208.069" y="266.835" width="1.63832" height="48.3306" fill="#01B5D8"/>
<rect x="230.187" y="266.835" width="1.63832" height="48.3306" fill="#01B5D8"/>
<rect x="211.756" y="266.835" width="1.63832" height="48.3306" fill="#01B5D8"/>
<rect x="233.873" y="266.835" width="1.63832" height="48.3306" fill="#01B5D8"/>
<rect x="237.559" y="266.835" width="1.63832" height="48.3306" fill="#01B5D8"/>
<rect x="193.325" y="266.835" width="1.63832" height="48.3306" fill="#01B5D8"/>
<rect x="215.442" y="266.835" width="1.63832" height="48.3306" fill="#01B5D8"/>
<rect x="197.011" y="266.835" width="1.63832" height="48.3306" fill="#01B5D8"/>
<rect x="219.128" y="266.835" width="1.63832" height="48.3306" fill="#01B5D8"/>
<rect x="188" y="71" width="56.5222" height="57.3414" rx="11" fill="#0077B7"/>
<rect x="193.325" y="75.5054" width="1.63832" height="48.3306" fill="#01B5D8"/>
<rect x="215.442" y="75.5054" width="1.63832" height="48.3306" fill="#01B5D8"/>
<rect x="237.559" y="75.5054" width="1.63832" height="48.3306" fill="#01B5D8"/>
<rect x="197.011" y="75.5054" width="1.63832" height="48.3306" fill="#01B5D8"/>
<rect x="219.128" y="75.5054" width="1.63832" height="48.3306" fill="#01B5D8"/>
<rect x="200.697" y="75.5054" width="1.63832" height="48.3306" fill="#01B5D8"/>
<rect x="222.814" y="75.5054" width="1.63832" height="48.3306" fill="#01B5D8"/>
<rect x="204.383" y="75.5054" width="1.63832" height="48.3306" fill="#01B5D8"/>
<rect x="226.501" y="75.5054" width="1.63832" height="48.3306" fill="#01B5D8"/>
<rect x="208.07" y="75.5054" width="1.63832" height="48.3306" fill="#01B5D8"/>
<rect x="230.187" y="75.5054" width="1.63832" height="48.3306" fill="#01B5D8"/>
<rect x="211.756" y="75.5054" width="1.63832" height="48.3306" fill="#01B5D8"/>
<rect x="233.873" y="75.5054" width="1.63832" height="48.3306" fill="#01B5D8"/>
<rect x="188" y="134.075" width="56.5222" height="57.3414" rx="11" fill="#0077B7"/>
<rect x="200.697" y="138.581" width="1.63832" height="48.3306" fill="#01B5D8"/>
<rect x="222.814" y="138.581" width="1.63832" height="48.3306" fill="#01B5D8"/>
<rect x="204.383" y="138.581" width="1.63832" height="48.3306" fill="#01B5D8"/>
<rect x="226.501" y="138.581" width="1.63832" height="48.3306" fill="#01B5D8"/>
<rect x="208.069" y="138.581" width="1.63832" height="48.3306" fill="#01B5D8"/>
<rect x="230.187" y="138.581" width="1.63832" height="48.3306" fill="#01B5D8"/>
<rect x="211.756" y="138.581" width="1.63832" height="48.3306" fill="#01B5D8"/>
<rect x="233.873" y="138.581" width="1.63832" height="48.3306" fill="#01B5D8"/>
<rect x="237.559" y="138.581" width="1.63832" height="48.3306" fill="#01B5D8"/>
<rect x="193.325" y="138.581" width="1.63832" height="48.3306" fill="#01B5D8"/>
<rect x="215.442" y="138.581" width="1.63832" height="48.3306" fill="#01B5D8"/>
<rect x="197.011" y="138.581" width="1.63832" height="48.3306" fill="#01B5D8"/>
<rect x="219.128" y="138.581" width="1.63832" height="48.3306" fill="#01B5D8"/>
<rect x="256.474" y="199.254" width="56.5222" height="57.3414" rx="11" fill="#0077B7"/>
<rect x="261.799" y="203.759" width="1.63832" height="48.3306" fill="#01B5D8"/>
<rect x="283.916" y="203.759" width="1.63832" height="48.3306" fill="#01B5D8"/>
<rect x="306.034" y="203.759" width="1.63832" height="48.3306" fill="#01B5D8"/>
<rect x="265.485" y="203.759" width="1.63832" height="48.3306" fill="#01B5D8"/>
<rect x="287.603" y="203.759" width="1.63832" height="48.3306" fill="#01B5D8"/>
<rect x="269.172" y="203.759" width="1.63832" height="48.3306" fill="#01B5D8"/>
<rect x="291.289" y="203.759" width="1.63832" height="48.3306" fill="#01B5D8"/>
<rect x="272.858" y="203.759" width="1.63832" height="48.3306" fill="#01B5D8"/>
<rect x="294.975" y="203.759" width="1.63832" height="48.3306" fill="#01B5D8"/>
<rect x="276.544" y="203.759" width="1.63832" height="48.3306" fill="#01B5D8"/>
<rect x="298.661" y="203.759" width="1.63832" height="48.3306" fill="#01B5D8"/>
<rect x="280.23" y="203.759" width="1.63832" height="48.3306" fill="#01B5D8"/>
<rect x="302.348" y="203.759" width="1.63832" height="48.3306" fill="#01B5D8"/>
<rect x="256.474" y="262.329" width="56.5222" height="57.3414" rx="11" fill="#0077B7"/>
<rect x="269.172" y="266.835" width="1.63832" height="48.3306" fill="#01B5D8"/>
<rect x="291.289" y="266.835" width="1.63832" height="48.3306" fill="#01B5D8"/>
<rect x="272.858" y="266.835" width="1.63832" height="48.3306" fill="#01B5D8"/>
<rect x="294.975" y="266.835" width="1.63832" height="48.3306" fill="#01B5D8"/>
<rect x="276.544" y="266.835" width="1.63832" height="48.3306" fill="#01B5D8"/>
<rect x="298.661" y="266.835" width="1.63832" height="48.3306" fill="#01B5D8"/>
<rect x="280.23" y="266.835" width="1.63832" height="48.3306" fill="#01B5D8"/>
<rect x="302.348" y="266.835" width="1.63832" height="48.3306" fill="#01B5D8"/>
<rect x="306.034" y="266.835" width="1.63832" height="48.3306" fill="#01B5D8"/>
<rect x="261.799" y="266.835" width="1.63832" height="48.3306" fill="#01B5D8"/>
<rect x="283.916" y="266.835" width="1.63832" height="48.3306" fill="#01B5D8"/>
<rect x="265.485" y="266.835" width="1.63832" height="48.3306" fill="#01B5D8"/>
<rect x="287.603" y="266.835" width="1.63832" height="48.3306" fill="#01B5D8"/>
<rect x="256.474" y="71" width="56.5222" height="57.3414" rx="11" fill="#0077B7"/>
<rect x="261.799" y="75.5054" width="1.63832" height="48.3306" fill="#01B5D8"/>
<rect x="283.916" y="75.5054" width="1.63832" height="48.3306" fill="#01B5D8"/>
<rect x="306.034" y="75.5054" width="1.63832" height="48.3306" fill="#01B5D8"/>
<rect x="265.485" y="75.5054" width="1.63832" height="48.3306" fill="#01B5D8"/>
<rect x="287.603" y="75.5054" width="1.63832" height="48.3306" fill="#01B5D8"/>
<rect x="269.172" y="75.5054" width="1.63832" height="48.3306" fill="#01B5D8"/>
<rect x="291.289" y="75.5054" width="1.63832" height="48.3306" fill="#01B5D8"/>
<rect x="272.858" y="75.5054" width="1.63832" height="48.3306" fill="#01B5D8"/>
<rect x="294.975" y="75.5054" width="1.63832" height="48.3306" fill="#01B5D8"/>
<rect x="276.544" y="75.5054" width="1.63832" height="48.3306" fill="#01B5D8"/>
<rect x="298.661" y="75.5054" width="1.63832" height="48.3306" fill="#01B5D8"/>
<rect x="280.23" y="75.5054" width="1.63832" height="48.3306" fill="#01B5D8"/>
<rect x="302.348" y="75.5054" width="1.63832" height="48.3306" fill="#01B5D8"/>
<rect x="256.474" y="134.076" width="56.5222" height="57.3414" rx="11" fill="#0077B7"/>
<rect x="269.172" y="138.581" width="1.63832" height="48.3306" fill="#01B5D8"/>
<rect x="291.289" y="138.581" width="1.63832" height="48.3306" fill="#01B5D8"/>
<rect x="272.858" y="138.581" width="1.63832" height="48.3306" fill="#01B5D8"/>
<rect x="294.975" y="138.581" width="1.63832" height="48.3306" fill="#01B5D8"/>
<rect x="276.544" y="138.581" width="1.63832" height="48.3306" fill="#01B5D8"/>
<rect x="298.661" y="138.581" width="1.63832" height="48.3306" fill="#01B5D8"/>
<rect x="280.23" y="138.581" width="1.63832" height="48.3306" fill="#01B5D8"/>
<rect x="302.348" y="138.581" width="1.63832" height="48.3306" fill="#01B5D8"/>
<rect x="306.034" y="138.581" width="1.63832" height="48.3306" fill="#01B5D8"/>
<rect x="261.799" y="138.581" width="1.63832" height="48.3306" fill="#01B5D8"/>
<rect x="283.916" y="138.581" width="1.63832" height="48.3306" fill="#01B5D8"/>
<rect x="265.485" y="138.581" width="1.63832" height="48.3306" fill="#01B5D8"/>
<rect x="287.603" y="138.581" width="1.63832" height="48.3306" fill="#01B5D8"/>
<path d="M237.567 452.654C243.398 452.645 249.819 446.172 253.782 442.369C253.964 442.197 253.964 442.197 254.149 442.022C261.463 435.085 266.152 425.396 269.239 415.929C269.491 416.322 269.74 416.716 269.989 417.111C270.128 417.331 270.267 417.55 270.411 417.776C271.602 419.79 272.22 421.891 272.797 424.143C272.854 424.361 272.912 424.578 272.971 424.802C273.021 424.997 273.071 425.193 273.123 425.395C273.316 425.921 273.466 426.175 273.917 426.505C274.623 426.532 275.115 426.483 275.679 426.03C276.573 425.116 277.359 424.156 278.112 423.124C278.234 422.956 278.356 422.789 278.483 422.616C281.721 418.121 284.574 413.189 286.527 407.997C286.581 407.853 286.636 407.71 286.692 407.561C288.249 403.394 289.106 398.987 289.578 394.574C289.604 394.332 289.631 394.091 289.659 393.842C290.662 382.687 288.284 371.228 281.018 362.482C280.889 362.334 280.761 362.185 280.629 362.032C280.487 361.868 280.346 361.705 280.201 361.537C279.741 361.016 279.272 360.506 278.798 359.998C278.555 359.734 278.555 359.734 278.306 359.466C271.833 352.709 262.182 348.584 252.857 348.364C241.703 348.242 231.939 351.993 223.876 359.745C222.449 361.146 221.194 362.652 220.019 364.269C219.934 364.386 219.849 364.503 219.762 364.623C215.043 371.186 212.597 378.968 212.621 387.036C212.622 387.19 212.622 387.345 212.622 387.505C212.649 393.919 214.5 399.649 217.073 405.48C217.604 406.685 218.126 407.894 218.647 409.103C218.749 409.342 218.852 409.581 218.958 409.827C220.06 412.404 221.036 415.017 221.886 417.689C222.048 418.151 222.199 418.564 222.46 418.98C223.121 419.196 223.121 419.196 223.884 419.183C225.699 418.109 226.594 415.85 227.138 413.895C227.379 412.817 227.568 411.73 227.748 410.641C229.741 412.566 231.655 414.462 233.24 416.743C233.459 417.055 233.459 417.055 233.683 417.374C237.216 422.636 239.748 428.537 239.824 434.933C239.827 435.112 239.83 435.291 239.833 435.476C239.807 439.04 238.768 442.282 237.59 445.607C236.108 449.819 236.108 449.819 236.494 451.725C236.964 452.504 236.964 452.504 237.567 452.654Z" fill="#03055E"/>
<path d="M248.443 413.234C250.434 412.775 251.505 410.624 252.515 409.009C252.598 408.876 252.68 408.744 252.765 408.607C252.878 408.426 252.878 408.426 252.994 408.242C253.547 407.357 254.074 406.46 254.595 405.556C254.689 405.395 254.783 405.234 254.88 405.068C258.015 399.653 259.915 393.981 261.103 387.862C263.565 389.905 264.961 392.168 266.295 395.038C266.398 395.254 266.501 395.47 266.608 395.692C266.698 395.887 266.789 396.082 266.882 396.283C267.254 396.891 267.63 397.231 268.222 397.624C269.162 397.644 269.654 397.309 270.352 396.707C270.868 396.204 271.252 395.635 271.641 395.031C271.771 394.832 271.771 394.832 271.904 394.628C276.501 387.44 278.987 378.262 277.235 369.76C277.093 369.145 276.934 368.538 276.764 367.93C276.698 367.674 276.631 367.419 276.562 367.155C275.568 363.785 273.762 360.619 271.476 357.964C271.324 357.783 271.171 357.603 271.014 357.417C266.488 352.216 259.856 348.895 252.968 348.405C250.75 348.298 248.619 348.257 246.46 348.812C246.213 348.865 245.966 348.918 245.712 348.972C241.378 349.968 237.423 351.781 234.053 354.71C233.884 354.854 233.715 354.998 233.541 355.147C229.652 358.547 226.872 362.938 225.511 367.93C225.451 368.14 225.451 368.14 225.39 368.355C223.723 374.425 224.385 381.156 227.382 386.684C228.903 389.353 230.862 391.613 232.948 393.852C233.238 394.165 233.524 394.479 233.81 394.794C234.955 396.053 236.134 397.268 237.345 398.463C238.576 399.682 239.704 400.932 240.765 402.302C240.938 402.516 241.112 402.73 241.286 402.943C243.315 405.446 245.186 408.073 246.544 411.004C247.459 412.966 247.459 412.966 248.443 413.234Z" fill="#0077B7"/>
<path d="M252.777 377.298C255.045 375.706 255.886 372.071 256.736 369.57C257.547 367.193 258.446 364.893 259.537 362.627C260.854 359.887 261.682 357.477 260.786 354.43C259.867 352.029 257.993 350.323 255.712 349.227C255.545 349.157 255.378 349.087 255.205 349.015C255.034 348.941 254.863 348.866 254.687 348.789C252.337 348.183 249.106 348.176 246.927 349.323C246.696 349.473 246.696 349.473 246.46 349.625C246.31 349.721 246.16 349.816 246.005 349.914C245.591 350.204 245.213 350.512 244.833 350.846C244.71 350.95 244.587 351.054 244.46 351.161C242.328 353.107 241.165 356.271 240.923 359.105C240.664 365.089 242.909 370.041 246.777 374.527C248.382 376.251 250.278 378.064 252.777 377.298Z" fill="#90E0EF"/>
</svg>
